<?xml version="1.0" encoding="utf-8"?>
<!-- Generator: Adobe Illustrator 24.3.0, SVG Export Plug-In . SVG Version: 6.00 Build 0)  -->
<svg version="1.1" id="Capa_1" xmlns="http://www.w3.org/2000/svg" xmlns:xlink="http://www.w3.org/1999/xlink" x="0px" y="0px"
	 viewBox="0 0 103.4 41.3" style="enable-background:new 0 0 103.4 41.3;" xml:space="preserve">
<style type="text/css">
	.st0{fill-rule:evenodd;clip-rule:evenodd;fill:#4AC1F5;}
	.st1{fill-rule:evenodd;clip-rule:evenodd;fill:#333E42;}
</style>
<g>
	<path class="st0" d="M70.7,8.3L70.7,8.3c0-0.1-0.1-0.1-0.1-0.2c0,0,0,0,0-0.1c0,0,0-0.1-0.1-0.1l0,0l0,0c0,0,0,0-0.1,0l0,0l-19-7.2
		c-0.2,0-0.4,0-0.5,0L32,7.9l0,0c0,0,0,0-0.1,0l0,0l0,0c0,0,0,0-0.1,0.1c0,0,0,0,0,0.1v0.1c0,0,0,0,0,0.1c0,0,0,0.1,0,0.2v22.8
		c0,0.3,0.2,0.5,0.4,0.6l19,8.6l0,0c0.1,0,0.1,0,0.2,0c0.1,0,0.2,0,0.2,0l0,0l19-8.6c0.2-0.1,0.4-0.3,0.4-0.6V8.5
		C70.8,8.5,70.8,8.4,70.7,8.3L70.7,8.3L70.7,8.3L70.7,8.3z M50.6,39L33,30.9V9.5l17.6,7.3V39L50.6,39L50.6,39L50.6,39L50.6,39z
		 M51.1,15.7L34,8.5l17.2-6.4l17.2,6.4L51.1,15.7L51.1,15.7L51.1,15.7L51.1,15.7L51.1,15.7z M69.4,30.9L51.8,39V16.8l17.6-7.3V30.9
		L69.4,30.9L69.4,30.9L69.4,30.9L69.4,30.9z"/>
	<polygon class="st1" points="11.1,29 11.1,18.4 18.6,18.4 18.6,20.2 13.1,20.2 13.1,22.6 18.2,22.6 18.2,24.4 13.1,24.4 13.1,27.2 
		18.8,27.2 18.8,29.1 11.1,29.1 11.1,29 	"/>
	<path class="st1" d="M31.3,25.7l2,0.6c-0.3,1.2-0.8,2.1-1.6,2.7c-0.7,0.6-1.7,0.9-2.8,0.9c-1.4,0-2.5-0.5-3.4-1.5
		c-0.9-1-1.3-2.4-1.3-4.2c0-1.8,0.4-3.3,1.3-4.3c0.9-1.1,2.1-1.5,3.5-1.5c1.3,0,2.3,0.4,3.1,1.2c0.5,0.4,0.8,1.2,1.1,2l-2.1,0.5
		c-0.1-0.5-0.4-1.1-0.8-1.4c-0.4-0.3-0.9-0.5-1.4-0.5c-0.8,0-1.4,0.3-1.9,0.9c-0.5,0.6-0.7,1.6-0.7,2.9c0,1.4,0.2,2.5,0.7,3
		c0.5,0.6,1.1,0.9,1.8,0.9c0.6,0,1-0.2,1.4-0.5C30.9,27.2,31.2,26.5,31.3,25.7L31.3,25.7z"/>
	<path class="st1" d="M46.5,25.7l2.2,0.6c-0.3,1.2-0.9,2.1-1.8,2.7c-0.8,0.6-1.9,0.9-3.1,0.9c-1.5,0-2.7-0.5-3.7-1.5
		c-1-1-1.4-2.4-1.4-4.2c0-1.8,0.4-3.3,1.4-4.3c1-1.1,2.3-1.5,3.8-1.5c1.4,0,2.5,0.4,3.4,1.2c0.5,0.4,0.9,1.2,1.2,2l-2.3,0.5
		c-0.1-0.5-0.4-1.1-0.9-1.4c-0.4-0.3-1-0.5-1.5-0.5c-0.9,0-1.5,0.3-2.1,0.9c-0.5,0.6-0.8,1.6-0.8,2.9c0,1.4,0.2,2.5,0.8,3
		c0.5,0.6,1.2,0.9,2,0.9c0.7,0,1.1-0.2,1.5-0.5C45.9,27.2,46.2,26.5,46.5,25.7L46.5,25.7z"/>
	<path class="st1" d="M54.8,18.5h2.3v6.1c0,1,0,1.6,0.1,1.9c0.1,0.4,0.3,0.9,0.7,1.1c0.3,0.3,0.9,0.4,1.6,0.4c0.7,0,1.1-0.1,1.6-0.4
		c0.3-0.2,0.6-0.5,0.6-1c0-0.4,0.1-1,0.1-1.9v-6.3H64v6c0,1.3-0.1,2.3-0.2,2.8c-0.1,0.5-0.3,1.1-0.7,1.4c-0.3,0.4-0.8,0.7-1.3,0.9
		c-0.6,0.2-1.3,0.3-2.2,0.3c-1.1,0-2-0.1-2.5-0.3c-0.6-0.2-1-0.5-1.3-1c-0.3-0.4-0.6-0.9-0.7-1.3c-0.1-0.7-0.2-1.6-0.2-2.8V18.5
		L54.8,18.5L54.8,18.5z"/>
	<path class="st1" d="M69.3,18.4h4.4c0.8,0,1.5,0,1.9,0.1c0.4,0.1,0.8,0.2,1.2,0.4c0.3,0.2,0.6,0.6,0.8,1c0.2,0.4,0.3,0.9,0.3,1.3
		c0,0.6-0.1,1-0.4,1.4c-0.3,0.4-0.6,0.8-1.2,1c0.6,0.2,1.2,0.6,1.6,1c0.3,0.4,0.5,1.1,0.5,1.8c0,0.6-0.1,1-0.3,1.5
		c-0.2,0.4-0.5,0.9-1,1.2s-1,0.4-1.5,0.6c-0.4,0-1.3,0.1-2.6,0.1h-3.7V18.4H69.3L69.3,18.4z M71.6,20.2v2.6H73c0.8,0,1.4,0,1.6,0
		c0.4,0,0.6-0.2,0.8-0.4c0.2-0.2,0.3-0.6,0.3-0.9c0-0.3-0.1-0.7-0.3-0.9c-0.2-0.2-0.4-0.3-0.8-0.4c-0.2,0-0.8,0-1.9,0H71.6
		L71.6,20.2L71.6,20.2z M71.6,24.8v3.1h2c0.8,0,1.3,0,1.5-0.1c0.3-0.1,0.6-0.2,0.8-0.4c0.2-0.2,0.3-0.6,0.3-1c0-0.3-0.1-0.7-0.2-0.9
		c-0.2-0.2-0.4-0.4-0.7-0.6c-0.3-0.1-1-0.1-2-0.1H71.6L71.6,24.8L71.6,24.8z"/>
	<polygon class="st1" points="84.7,29 84.7,18.4 92.1,18.4 92.1,20.2 86.7,20.2 86.7,22.6 91.8,22.6 91.8,24.4 86.7,24.4 86.7,27.2 
		92.3,27.2 92.3,29.1 84.7,29.1 84.7,29 	"/>
</g>
</svg>
